<?xml version="1.0" standalone="no"?>
<!DOCTYPE svg PUBLIC "-//W3C//DTD SVG 20010904//EN"
 "http://www.w3.org/TR/2001/REC-SVG-20010904/DTD/svg10.dtd">
<svg version="1.0" xmlns="http://www.w3.org/2000/svg"
 width="1218.000000pt" height="530.000000pt" viewBox="0 0 1218.000000 530.000000"
 preserveAspectRatio="xMidYMid meet">

<g transform="translate(0.000000,530.000000) scale(0.100000,-0.100000)"
fill="#000000" stroke="none">
<path d="M1389 4441 c-155 -22 -283 -86 -400 -201 -59 -59 -85 -95 -117 -160
-79 -160 -76 -130 -80 -825 -4 -669 -1 -721 47 -856 40 -112 85 -183 176 -274
161 -160 354 -235 575 -222 112 7 205 33 315 90 110 57 243 189 302 302 64
122 87 217 87 355 0 218 -67 379 -226 544 -85 88 -87 107 -24 210 25 39 57
107 72 151 25 70 28 95 28 205 1 143 -19 227 -81 340 -56 101 -179 218 -283
268 -132 65 -266 90 -391 73z m147 -302 c123 -22 224 -101 281 -218 25 -49 28
-68 28 -151 0 -85 -3 -102 -31 -160 -38 -80 -102 -145 -180 -185 -54 -27 -68
-30 -159 -30 -87 0 -107 3 -157 27 -196 92 -280 320 -186 508 63 128 176 201
334 219 6 0 37 -4 70 -10z m119 -1044 c136 -36 242 -124 302 -252 63 -131 57
-283 -14 -415 -37 -69 -130 -153 -210 -191 -65 -30 -74 -32 -188 -32 -113 0
-124 2 -185 31 -179 85 -280 255 -267 452 17 276 294 476 562 407z"/>
<path d="M2680 3910 c-103 -18 -170 -101 -170 -207 1 -117 87 -203 205 -203
118 0 204 86 205 203 0 133 -112 229 -240 207z"/>
<path d="M3792 3400 c-286 -39 -526 -234 -616 -498 -70 -206 -54 -413 47 -607
59 -113 191 -245 302 -302 250 -129 514 -122 753 18 73 44 207 178 251 253
158 268 139 596 -49 848 -152 202 -437 322 -688 288z m169 -320 c190 -35 342
-203 356 -392 14 -180 -81 -344 -246 -426 -73 -36 -78 -37 -185 -37 -104 0
-115 2 -179 32 -194 92 -295 300 -243 503 41 158 167 281 326 316 70 16 104
16 171 4z"/>
<path d="M5532 3400 c-308 -42 -558 -261 -638 -560 -24 -89 -25 -282 -1 -370
32 -122 98 -239 192 -339 100 -106 105 -126 53 -207 -50 -78 -87 -165 -103
-240 -64 -302 84 -614 357 -748 120 -60 213 -80 338 -73 170 10 308 68 430
184 117 110 186 244 210 409 8 55 10 267 8 694 -4 595 -5 617 -26 693 -60 216
-201 387 -397 482 -139 67 -287 93 -423 75z m248 -319 c170 -65 283 -217 297
-396 14 -185 -89 -361 -262 -446 -68 -33 -73 -34 -190 -34 -119 0 -122 0 -196
37 -95 47 -177 130 -221 225 -44 92 -51 217 -19 321 45 148 172 268 326 309
69 18 197 10 265 -16z m77 -1201 c34 -15 82 -49 107 -73 188 -188 132 -494
-113 -614 -49 -25 -68 -28 -151 -28 -83 0 -103 4 -155 28 -79 37 -156 114
-192 191 -24 53 -28 73 -28 156 0 82 4 103 27 152 91 196 313 278 505 188z"/>
<path d="M8190 3400 c-90 -11 -213 -52 -290 -97 -80 -47 -223 -188 -269 -265
-18 -32 -47 -97 -64 -145 -42 -122 -50 -289 -18 -414 57 -225 199 -404 396
-499 125 -60 190 -75 340 -74 119 0 138 3 225 32 52 17 120 47 150 66 l54 34
31 -43 c39 -57 59 -65 160 -65 135 0 125 -34 125 428 0 417 -3 448 -56 582
-53 134 -162 264 -293 349 -136 88 -328 131 -491 111z m171 -320 c130 -25 245
-114 306 -238 37 -75 38 -78 38 -191 0 -100 -3 -123 -23 -166 -76 -164 -229
-265 -402 -265 -217 0 -395 153 -429 370 -47 290 219 545 510 490z"/>
<path d="M9770 3400 c-224 -34 -402 -199 -460 -426 -19 -71 -20 -112 -20 -544
0 -440 1 -468 18 -483 15 -14 41 -17 145 -17 119 0 127 1 141 22 14 20 16 83
16 486 0 506 -1 496 60 566 50 57 103 80 180 80 102 0 176 -48 219 -144 20
-43 21 -64 21 -511 0 -438 1 -467 18 -482 15 -14 41 -17 145 -17 119 0 127 1
141 22 14 20 16 82 16 477 0 315 4 465 12 492 15 51 69 114 122 141 56 30 155
31 211 1 52 -28 89 -67 114 -123 20 -43 21 -64 21 -511 0 -438 1 -467 18 -482
15 -14 41 -17 144 -17 110 0 127 2 142 19 16 17 17 58 14 507 l-3 489 -27 75
c-51 139 -157 264 -278 325 -194 98 -437 71 -603 -67 l-48 -40 -27 25 c-106
101 -301 160 -452 137z"/>
<path d="M7196 3380 c-212 -57 -396 -211 -487 -405 -70 -151 -72 -165 -76
-603 -4 -349 -3 -396 11 -417 16 -24 19 -25 146 -25 104 0 132 3 144 16 14 13
16 62 16 383 0 399 4 435 57 533 57 105 182 196 298 217 76 14 85 31 85 165 0
139 -9 156 -78 155 -26 0 -78 -9 -116 -19z"/>
<path d="M2582 3364 l-22 -15 0 -699 c0 -681 1 -700 19 -710 11 -5 72 -10 136
-10 64 0 125 5 136 10 18 10 19 29 19 710 l0 699 -22 15 c-17 12 -49 16 -133
16 -84 0 -116 -4 -133 -16z"/>
</g>
</svg>
