<svg xmlns="http://www.w3.org/2000/svg" width="200" height="68" fill="none" style=""><rect id="backgroundrect" width="100%" height="100%" x="0" y="0" fill="none" stroke="none" class="" style=""/>























<g class="currentLayer" style=""><title>Layer 1</title><path d="M38.959,20.2872 H34.869 C34.31,20.2872 33.857,20.7342 33.857,21.2857 V46.7112 C33.857,47.2626 34.31,47.7097 34.869,47.7097 H38.959 C39.516999999999996,47.7097 39.97,47.2626 39.97,46.7112 V21.2857 C39.97,20.7342 39.516999999999996,20.2872 38.959,20.2872 z" fill="#214DD4" id="svg_1" class=""/><path d="M36.91,10.065999999999999 C34.69499999999999,10.065999999999999 32.89599999999999,11.845400000000001 32.89599999999999,14.030100000000001 C32.89599999999999,16.2148 34.69800000000001,17.9942 36.91,17.9942 C39.12299999999999,17.9942 40.92500000000001,16.2148 40.92500000000001,14.030100000000001 C40.92500000000001,11.845400000000001 39.12299999999999,10.065999999999999 36.91,10.065999999999999 V10.065999999999999 z" fill="#214DD4" id="svg_2" class=""/><path d="M143.74599999999998,19.7213 C135.759,19.7213 129.285,26.1147 129.285,34.0009 C129.285,41.8871 135.759,48.2805 143.74599999999998,48.2805 C146.85899999999998,48.2805 149.735,47.2994 152.09199999999998,45.6485 V45.6633 L153.053,47.0102 C153.36900000000003,47.4526 153.882,47.7146 154.43,47.7146 H156.822 C157.586,47.7146 158.204,47.1041 158.204,46.3504 V34.0034 C158.204,26.117199999999997 151.72899999999998,19.7237 143.743,19.7237 L143.74599999999998,19.7213 zM143.74599999999998,42.2429 C139.135,42.2429 135.399,38.5532 135.399,34.0009 C135.399,29.4486 139.135,25.7588 143.74599999999998,25.7588 C148.356,25.7588 152.09199999999998,29.4486 152.09199999999998,34.0009 C152.09199999999998,38.5532 148.356,42.2429 143.74599999999998,42.2429 z" fill="#214DD4" id="svg_3" class=""/><path d="M59.363,19.7213 C51.38900000000001,19.7213 44.903999999999996,26.1271 44.903999999999996,34.0009 C44.903999999999996,41.8747 51.39099999999999,48.2805 59.363,48.2805 C67.334,48.2805 73.821,41.8747 73.821,34.0009 C73.821,26.1271 67.334,19.7213 59.363,19.7213 V19.7213 zM59.363,42.2429 C54.75800000000001,42.2429 51.01400000000001,38.5433 51.01400000000001,33.9984 C51.01400000000001,29.4535 54.75999999999999,25.7564 59.363,25.7564 C63.965,25.7564 67.71199999999999,29.4535 67.71199999999999,33.9984 C67.71199999999999,38.5433 63.96799999999999,42.2429 59.363,42.2429 z" fill="#214DD4" id="svg_4" class=""/><path d="M23.851,23.1667 C23.043000000000006,22.487099999999998 22.909999999999997,21.3379 23.545999999999992,20.4927 C25.205000000000013,18.2833 26.08099999999999,15.6512 26.08099999999999,12.8808 C26.08099999999999,5.7781 20.232,0 13.039000000000001,0 C5.846000000000004,0 0,5.7781 0,12.8784 V34.0012 C0,41.8751 6.486999999999995,48.2809 14.457999999999998,48.2809 C22.430000000000007,48.2809 28.917,41.8751 28.917,34.0012 C28.917,29.819699999999997 27.069999999999993,25.870400000000004 23.851,23.1667 V23.1667 zM13.042000000000002,5.691600000000001 C17.054000000000002,5.691600000000001 20.319999999999993,8.9143 20.319999999999993,12.875900000000001 C20.319999999999993,16.8375 17.054000000000002,20.0627 13.042000000000002,20.0627 C9.030000000000001,20.0627 5.771000000000001,16.84 5.763999999999996,12.875900000000001 C5.763999999999996,8.9143 9.030000000000001,5.691600000000001 13.042000000000002,5.691600000000001 V5.691600000000001 zM14.461000000000013,42.6535 C9.626000000000005,42.6535 5.694000000000003,38.771 5.694000000000003,33.9963 C5.694000000000003,29.221600000000002 9.626000000000005,25.341500000000003 14.461000000000013,25.341500000000003 C19.295999999999992,25.341500000000003 23.22800000000001,29.2241 23.22800000000001,33.9963 C23.22800000000001,38.7685 19.295999999999992,42.6535 14.461000000000013,42.6535 z" fill="#214DD4" id="svg_5" class=""/><path d="M92.757,19.7218 C84.78299999999999,19.7218 78.299,26.1276 78.299,34.0014 C78.299,38.183 80.14599999999999,42.1323 83.36699999999999,44.836 C84.17500000000001,45.5156 84.30799999999999,46.6648 83.672,47.51 C82.013,49.7194 81.137,52.3539 81.137,55.12179999999999 C81.137,62.2221 86.988,68.0002 94.179,68.0002 C101.369,68.0002 107.21799999999999,62.2221 107.21799999999999,55.12179999999999 V33.999 C107.21799999999999,26.125100000000003 100.731,19.7193 92.75999999999999,19.7193 L92.757,19.7218 zM94.17599999999999,62.3061 C90.16399999999999,62.3061 86.898,59.0835 86.898,55.12179999999999 C86.898,51.1602 90.16399999999999,47.9351 94.17599999999999,47.9351 C98.18799999999999,47.9351 101.447,51.1577 101.45400000000001,55.12179999999999 C101.45400000000001,59.0835 98.18799999999999,62.3061 94.17599999999999,62.3061 zM92.757,42.6537 C87.922,42.6537 83.99000000000001,38.7712 83.99000000000001,33.999 C83.99000000000001,29.2267 87.922,25.341700000000003 92.757,25.341700000000003 C97.59299999999999,25.341700000000003 101.524,29.2243 101.524,33.999 C101.524,38.7737 97.59299999999999,42.6537 92.757,42.6537 z" fill="#214DD4" id="svg_6" class=""/><path d="M126.61500000000001,20.8091 C126.61500000000001,20.1987 126.084,19.7168 125.46600000000001,19.7662 C118.02799999999999,20.347 112.156,26.5081 112.156,34.0013 V46.7141 C112.156,47.2652 112.60900000000001,47.7126 113.167,47.7126 H117.257 C117.815,47.7126 118.268,47.2652 118.268,46.7141 V34.0013 C118.268,29.785200000000003 121.487,26.3005 125.62899999999999,25.8161 C126.19200000000001,25.7494 126.61699999999999,25.2823 126.61699999999999,24.7213 V20.8091 H126.61500000000001 z" fill="#214DD4" id="svg_7" class=""/><path d="M189.937,19.741 C186.65499999999997,19.5408 183.66699999999997,20.8062 181.57,22.933999999999997 C179.473,20.8086 176.48399999999998,19.5408 173.20299999999997,19.741 C167.49200000000002,20.0919 163.142,24.9754 163.142,30.6274 V46.7136 C163.142,47.2647 163.59500000000003,47.7121 164.15300000000002,47.7121 H168.243 C168.801,47.7121 169.25400000000002,47.2672 169.25400000000002,46.7161 C169.25400000000002,43.5404 169.25400000000002,33.6697 169.25400000000002,30.3309 C169.25400000000002,27.8101 171.33100000000002,25.7588 173.88400000000001,25.7588 C176.437,25.7588 178.514,27.8101 178.517,30.3309 C178.517,33.672200000000004 178.517,43.5404 178.517,46.7161 C178.517,47.2672 178.97000000000003,47.7121 179.52800000000002,47.7121 H183.61700000000002 C184.175,47.7121 184.628,47.2672 184.628,46.7161 C184.628,43.5404 184.628,33.6697 184.628,30.3309 C184.628,27.8101 186.70600000000002,25.7588 189.25799999999998,25.7588 C191.81099999999998,25.7588 193.88799999999998,27.8101 193.88799999999998,30.3309 C193.88799999999998,33.672200000000004 193.88799999999998,43.5404 193.88799999999998,46.7161 C193.88799999999998,47.2672 194.341,47.7121 194.89999999999998,47.7121 H198.98899999999998 C199.54700000000003,47.7121 200,47.2647 200,46.7136 V30.6274 C200,24.9754 195.64999999999998,20.0919 189.93900000000002,19.741 H189.937 z" fill="#214DD4" id="svg_8" class=""/><path d="M72.219,3.5268999999999995 C72.219,3.2364999999999995 72.5,3.071300000000001 72.83099999999999,3.071300000000001 C73.162,3.071300000000001 73.44200000000001,3.2364999999999995 73.44200000000001,3.5268999999999995 V9.204 C73.44200000000001,9.5519 73.189,9.7071 72.83099999999999,9.7071 C72.47200000000001,9.7071 72.219,9.5519 72.219,9.204 V6.5981999999999985 H69.987 C69.939,6.5981999999999985 69.899,6.5981999999999985 69.862,6.5882000000000005 C69.19200000000001,7.576899999999998 68.076,8.2453 66.737,8.613199999999999 C66.65899999999999,8.6433 66.582,8.6508 66.51400000000001,8.6508 C66.261,8.6508 66,8.418 66,8.030000000000001 C66,7.8172 66.108,7.652000000000001 66.30099999999999,7.5944 C68.00899999999999,7.0913 69.202,6.1126000000000005 69.202,4.911099999999999 C69.202,4.7759 69.124,4.725899999999999 68.97900000000001,4.725899999999999 H66.62200000000001 C66.351,4.725899999999999 66.196,4.5131 66.196,4.1927 C66.196,3.9123 66.351,3.679500000000001 66.62200000000001,3.679500000000001 H69.74600000000001 C70.436,3.679500000000001 70.58099999999999,3.9223999999999997 70.541,4.5907 C70.511,4.928599999999999 70.453,5.2490000000000006 70.356,5.5494 H72.219 V3.5268999999999995 V3.5268999999999995 zM67.47399999999999,9.3091 C67.47399999999999,9.008700000000001 67.775,8.8535 68.114,8.8535 C68.452,8.8535 68.75299999999999,9.008700000000001 68.75299999999999,9.3091 V10.878499999999999 C68.75299999999999,11.0638 68.78299999999999,11.0913 68.976,11.0913 H73.285 C73.57499999999999,11.0913 73.71100000000001,11.3141 73.71100000000001,11.604500000000002 C73.71100000000001,11.8948 73.57499999999999,12.127600000000001 73.285,12.127600000000001 H68.55000000000001 C67.833,12.127600000000001 67.47200000000001,12.04 67.47200000000001,11.2665 V9.3091 H67.47399999999999 z" fill="#214DD4" id="svg_9" class=""/><path d="M78.428,3.6144999999999996 C79.019,3.6144999999999996 79.25299999999999,3.7797 79.25299999999999,4.3027999999999995 C79.25299999999999,6.520600000000002 77.487,7.8673 75.41900000000001,8.3704 C75.351,8.3904 75.28299999999999,8.400500000000001 75.225,8.400500000000001 C74.965,8.400500000000001 74.701,8.157599999999999 74.701,7.7897 C74.701,7.576899999999998 74.81700000000001,7.401700000000002 75.03200000000001,7.344100000000001 C76.565,6.938600000000001 77.91399999999999,6.0275 77.91399999999999,4.806000000000001 C77.91399999999999,4.6808 77.856,4.6608 77.65299999999999,4.6608 H75.333 C75.07300000000001,4.6608 74.90700000000001,4.438000000000001 74.90700000000001,4.127599999999999 C74.90700000000001,3.8371999999999993 75.07300000000001,3.6144999999999996 75.333,3.6144999999999996 H78.428 V3.6144999999999996 zM78.904,12.282800000000002 C76.92599999999999,12.282800000000002 75.857,11.584399999999999 75.857,10.402999999999999 C75.857,9.221499999999999 76.916,8.485600000000002 78.904,8.485600000000002 C80.893,8.485600000000002 81.96100000000001,9.183900000000001 81.96100000000001,10.402999999999999 C81.96100000000001,11.622 80.90299999999999,12.282800000000002 78.904,12.282800000000002 zM78.904,9.4743 C77.74100000000001,9.4743 77.13900000000001,9.822199999999999 77.13900000000001,10.395399999999999 C77.13900000000001,10.968699999999998 77.74100000000001,11.3066 78.904,11.3066 C80.06800000000001,11.3066 80.69999999999999,10.9586 80.69999999999999,10.395399999999999 C80.69999999999999,9.8322 80.078,9.4743 78.904,9.4743 zM80.642,3.5268999999999995 C80.642,3.2364999999999995 80.91300000000001,3.071300000000001 81.244,3.071300000000001 C81.57499999999999,3.071300000000001 81.856,3.2364999999999995 81.856,3.5268999999999995 V5.2515 H82.894 C83.195,5.2515 83.30199999999999,5.4643 83.30199999999999,5.774699999999999 C83.30199999999999,6.085100000000001 83.195,6.297799999999999 82.894,6.297799999999999 H81.856 V7.9548999999999985 C81.856,8.3128 81.602,8.468 81.244,8.468 C80.88499999999999,8.468 80.642,8.302800000000001 80.642,7.9548999999999985 V3.5268999999999995 z" fill="#214DD4" id="svg_10" class=""/><path d="M83.94900000000001,7.799700000000001 C83.68799999999999,7.799700000000001 83.57,7.5669 83.57,7.3141 C83.57,7.061299999999999 83.686,6.8210000000000015 83.94900000000001,6.8210000000000015 H91.61500000000001 C91.875,6.8210000000000015 92.00299999999999,7.0638000000000005 92.00299999999999,7.3141 C92.00299999999999,7.564399999999999 91.87799999999999,7.799700000000001 91.61500000000001,7.799700000000001 H83.94900000000001 zM87.791,3.1689000000000007 C90.012,3.1689000000000007 90.91499999999999,3.7996999999999996 90.91499999999999,4.7684 C90.91499999999999,5.7372 90.012,6.365400000000001 87.791,6.365400000000001 C85.56899999999999,6.365400000000001 84.656,5.7271 84.656,4.7684 C84.656,3.8096999999999994 85.57900000000001,3.1689000000000007 87.791,3.1689000000000007 zM90.77000000000001,11.324100000000001 C91.03999999999999,11.324100000000001 91.168,11.526900000000001 91.168,11.807200000000002 C91.168,12.087599999999998 91.043,12.3204 90.77000000000001,12.3204 H85.684 C85.035,12.3204 84.744,12.1176 84.744,11.506900000000002 V10.625800000000002 C84.744,10.1402 84.91900000000001,9.889800000000001 85.49100000000001,9.889800000000001 H89.333 C89.49799999999999,9.889800000000001 89.518,9.8798 89.518,9.7547 V9.494399999999999 C89.518,9.3792 89.50800000000001,9.359200000000001 89.333,9.359200000000001 H85.102 C84.84200000000001,9.359200000000001 84.70400000000001,9.156400000000001 84.70400000000001,8.876100000000001 C84.70400000000001,8.5957 84.839,8.383 85.102,8.383 H89.99199999999999 C90.614,8.383 90.80699999999999,8.653300000000002 90.80699999999999,9.1664 V9.9424 C90.80699999999999,10.4956 90.614,10.765899999999998 89.99199999999999,10.765899999999998 H86.21799999999999 C86.053,10.765899999999998 86.035,10.786000000000001 86.035,10.911100000000001 V11.1815 C86.035,11.3066 86.055,11.3266 86.21799999999999,11.3266 H90.77000000000001 V11.324100000000001 zM87.791,5.424300000000001 C89.12,5.424300000000001 89.606,5.1714 89.606,4.7659 C89.606,4.3604 89.12,4.0876 87.791,4.0876 C86.46199999999999,4.0876 85.96799999999999,4.340400000000001 85.96799999999999,4.7659 C85.96799999999999,5.1915 86.47200000000001,5.424300000000001 87.791,5.424300000000001 z" fill="#214DD4" id="svg_11" class=""/><path d="M99.017,3.8072 C99.72399999999999,3.8072 100.04499999999999,3.8948 100.04499999999999,4.6608 C100.04499999999999,7.1889 98.75399999999999,8.9236 96.37700000000001,9.939900000000002 C96.269,9.987400000000001 96.16399999999999,10.0075 96.076,10.0075 C95.815,10.0075 95.50399999999999,9.764700000000001 95.50399999999999,9.359100000000002 C95.50399999999999,9.1664 95.602,8.981200000000001 95.74700000000001,8.9236 C97.58000000000001,8.1476 98.74600000000001,6.938600000000001 98.74600000000001,5.096299999999999 C98.74600000000001,4.911099999999999 98.69900000000001,4.8635 98.48599999999999,4.8635 H96.088 C95.81800000000001,4.8635 95.642,4.6508 95.642,4.330400000000001 C95.642,4.029999999999999 95.81800000000001,3.8072 96.088,3.8072 H99.02000000000001 H99.017 zM101.52000000000001,3.5368999999999993 C101.52000000000001,3.2364999999999995 101.781,3.071300000000001 102.142,3.071300000000001 C102.47999999999999,3.071300000000001 102.75399999999999,3.2364999999999995 102.75399999999999,3.5368999999999993 V11.576899999999998 C102.75399999999999,11.924900000000001 102.493,12.079999999999998 102.142,12.079999999999998 C101.791,12.079999999999998 101.52000000000001,11.924900000000001 101.52000000000001,11.576899999999998 V3.5368999999999993 z" fill="#214DD4" id="svg_12" class=""/><path d="M107.59299999999999,7.294899999999998 H106.23400000000001 C105.52699999999999,7.294899999999998 105.233,7.139700000000001 105.233,6.441300000000002 V5.607800000000001 C105.233,5.026999999999999 105.41900000000001,4.824300000000001 105.99100000000001,4.824300000000001 H109.755 C109.91999999999999,4.824300000000001 109.94,4.8043 109.94,4.6791 V4.418800000000001 C109.94,4.3111 109.93,4.2836 109.755,4.2836 H105.62200000000001 C105.33099999999999,4.2836 105.186,4.0908999999999995 105.186,3.7805 C105.186,3.4701000000000004 105.321,3.2773000000000003 105.612,3.2773000000000003 H110.39699999999999 C111.00800000000001,3.2773000000000003 111.21100000000001,3.5000999999999998 111.21100000000001,4.100899999999999 V4.8568 C111.21100000000001,5.5051000000000005 110.99799999999999,5.7279 110.376,5.7279 H106.69 C106.525,5.7279 106.505,5.7479 106.505,5.873100000000001 V6.173500000000001 C106.505,6.2986 106.525,6.3186 106.69,6.3186 H111.106 C111.39699999999999,6.3186 111.53200000000001,6.511399999999998 111.53200000000001,6.8017 C111.53200000000001,7.112100000000002 111.387,7.294899999999998 111.096,7.294899999999998 H108.874 V8.020800000000001 H112.05699999999999 C112.31700000000001,8.020800000000001 112.445,8.2636 112.445,8.503900000000002 C112.445,8.7442 112.32,9.007000000000001 112.05699999999999,9.007000000000001 H104.39099999999999 C104.13,9.007000000000001 104.012,8.7542 104.012,8.503900000000002 C104.012,8.253599999999999 104.12799999999999,8.020800000000001 104.39099999999999,8.020800000000001 H107.59299999999999 V7.294899999999998 V7.294899999999998 zM111.262,11.953199999999999 C111.262,12.253599999999999 110.96100000000001,12.4088 110.63,12.4088 C110.299,12.4088 109.99000000000001,12.253599999999999 109.99000000000001,11.953199999999999 V10.761700000000001 C109.99000000000001,10.596499999999999 109.96000000000001,10.579 109.787,10.579 H105.459 C105.168,10.579 105.043,10.3762 105.043,10.085899999999999 C105.043,9.7955 105.168,9.5627 105.459,9.5627 H110.22300000000001 C110.971,9.5627 111.262,9.687899999999999 111.262,10.406300000000002 V11.9557 V11.953199999999999 z" fill="#214DD4" id="svg_13" class=""/><path d="M113.31800000000001,6.180399999999999 C113.02699999999999,6.180399999999999 112.912,5.9101 112.912,5.6472999999999995 C112.912,5.366899999999999 113.037,5.1241 113.31800000000001,5.1241 H117.994 C118.275,5.1241 118.411,5.376900000000001 118.411,5.6472999999999995 C118.411,5.9176 118.285,6.180399999999999 117.994,6.180399999999999 H113.31800000000001 zM115.73500000000001,6.606000000000002 C117.007,6.606000000000002 117.91900000000001,7.3218 117.91900000000001,8.485800000000001 C117.91900000000001,9.649799999999999 117.007,10.383199999999999 115.73500000000001,10.383199999999999 C114.464,10.383199999999999 113.55099999999999,9.6573 113.55099999999999,8.485800000000001 C113.55099999999999,7.314299999999999 114.464,6.606000000000002 115.73500000000001,6.606000000000002 zM114.62899999999999,4.4758 C114.338,4.4758 114.231,4.2155000000000005 114.231,3.9426000000000005 C114.231,3.6698000000000004 114.356,3.4194999999999993 114.62899999999999,3.4194999999999993 H116.75299999999999 C117.024,3.4194999999999993 117.15899999999999,3.6723 117.15899999999999,3.9426000000000005 C117.15899999999999,4.212999999999999 117.03399999999999,4.4758 116.75299999999999,4.4758 H114.62899999999999 zM115.73500000000001,9.4345 C116.28899999999999,9.4345 116.763,9.1141 116.763,8.485800000000001 C116.763,7.857500000000002 116.287,7.537099999999999 115.73500000000001,7.537099999999999 C115.18299999999999,7.537099999999999 114.71700000000001,7.8675 114.71700000000001,8.485800000000001 C114.71700000000001,9.104099999999999 115.18299999999999,9.4345 115.73500000000001,9.4345 zM118.93700000000001,3.527100000000001 C118.93700000000001,3.236700000000001 119.19800000000001,3.0615000000000006 119.549,3.0615000000000006 C119.9,3.0615000000000006 120.161,3.236700000000001 120.161,3.527100000000001 V6.5783999999999985 H121.209 C121.50999999999999,6.5783999999999985 121.625,6.8012000000000015 121.625,7.101600000000001 C121.625,7.401900000000001 121.50999999999999,7.634699999999999 121.209,7.634699999999999 H120.161 V11.577200000000001 C120.161,11.9251 119.90799999999999,12.0903 119.549,12.0903 C119.191,12.0903 118.93700000000001,11.9251 118.93700000000001,11.577200000000001 V3.527100000000001 V3.527100000000001 z" fill="#214DD4" id="svg_14" class=""/><path d="M122.262,8.5454 C122.00200000000001,8.5454 121.88399999999999,8.2851 121.88399999999999,8.0323 C121.88399999999999,7.779399999999999 121.999,7.519100000000002 122.262,7.519100000000002 H129.928 C130.189,7.519100000000002 130.317,7.7895 130.317,8.0323 C130.317,8.275099999999998 130.191,8.5454 129.928,8.5454 H122.262 zM123.125,9.6893 C123.125,9.378900000000002 123.42599999999999,9.223700000000001 123.775,9.223700000000001 C124.12299999999999,9.223700000000001 124.41399999999999,9.378900000000002 124.41399999999999,9.6893 V10.8708 C124.41399999999999,11.056000000000001 124.44399999999999,11.0836 124.637,11.0836 H128.887 C129.178,11.0836 129.294,11.3063 129.294,11.596699999999998 C129.294,11.8871 129.178,12.119900000000001 128.887,12.119900000000001 H124.025 C123.36600000000001,12.119900000000001 123.12299999999999,12.022200000000002 123.12299999999999,11.296299999999999 V9.6893 H123.125 zM123.14500000000001,3.7043 C123.14500000000001,3.404 123.436,3.258800000000001 123.77699999999999,3.258800000000001 C124.136,3.258800000000001 124.42599999999999,3.404 124.42599999999999,3.7043 V5.439 C124.42599999999999,5.6318 124.46700000000001,5.6617999999999995 124.65,5.6617999999999995 H128.812 C129.103,5.6617999999999995 129.239,5.874600000000001 129.239,6.164899999999999 C129.239,6.475300000000001 129.103,6.678100000000001 128.812,6.678100000000001 H124.05799999999999 C123.398,6.678100000000001 123.14500000000001,6.552900000000001 123.14500000000001,5.8445 V3.7018000000000004 V3.7043 z" fill="#214DD4" id="svg_15" class=""/><path d="M133.78,7.199400000000001 H141.435 C141.706,7.199400000000001 141.824,7.4697 141.824,7.712499999999999 C141.824,7.972799999999999 141.709,8.235700000000001 141.435,8.235700000000001 H133.78 C133.509,8.235700000000001 133.391,7.975300000000001 133.391,7.712499999999999 C133.391,7.4697 133.506,7.199400000000001 133.78,7.199400000000001 V7.199400000000001 zM138.273,3.5373 V3.682500000000001 C138.273,4.7562999999999995 139.555,5.454700000000001 140.806,5.657400000000001 C141.097,5.705 141.222,6.025400000000001 141.117,6.335799999999999 C141.029,6.606100000000001 140.846,6.713799999999999 140.477,6.6662 C139.402,6.5411 138.07,5.940300000000001 137.624,5.049200000000001 C137.177,5.940300000000001 135.936,6.521000000000001 134.838,6.6762000000000015 C134.469,6.723800000000001 134.256,6.598600000000001 134.158,6.3383 C134.06,6.0579 134.168,5.717499999999999 134.469,5.67 C135.818,5.4472000000000005 136.964,4.741300000000001 136.964,3.6850000000000005 V3.5397999999999996 C136.964,3.2493999999999996 137.245,3.0741999999999994 137.614,3.0741999999999994 C137.982,3.0741999999999994 138.273,3.2493999999999996 138.273,3.5397999999999996 V3.5373 zM135.798,9.144300000000001 V9.6875 H139.427 V9.144300000000001 C139.427,8.864 139.728,8.718800000000002 140.049,8.718800000000002 C140.369,8.718800000000002 140.66,8.864 140.66,9.144300000000001 V11.3921 C140.66,12.0229 140.417,12.2732 139.738,12.2732 H135.487 C134.808,12.2732 134.574,12.020399999999999 134.574,11.3921 V9.144300000000001 C134.574,8.864 134.855,8.718800000000002 135.186,8.718800000000002 C135.517,8.718800000000002 135.798,8.864 135.798,9.144300000000001 V9.144300000000001 zM135.798,10.606100000000001 V11.081700000000001 C135.798,11.3045 135.836,11.3245 136.021,11.3245 H139.203 C139.397,11.3245 139.427,11.3045 139.427,11.081700000000001 V10.606100000000001 H135.798 z" fill="#214DD4" id="svg_16" class=""/><path d="M144.015,6.172699999999999 C144.015,5.872299999999999 144.31599999999997,5.7646999999999995 144.637,5.7646999999999995 C144.95800000000003,5.7646999999999995 145.23899999999998,5.889800000000001 145.23899999999998,6.172699999999999 V7.6645 C146.22000000000003,7.6645 146.97699999999998,7.556899999999999 147.50799999999998,7.451799999999999 C147.55599999999998,7.441800000000001 147.56599999999997,7.441800000000001 147.596,7.441800000000001 C147.85700000000003,7.441800000000001 148.022,7.644500000000001 148.022,7.9649 C148.022,8.1877 147.935,8.380400000000002 147.74200000000002,8.430499999999999 C147.13,8.5957 145.899,8.710799999999999 144.675,8.710799999999999 H142.666 C142.413,8.710799999999999 142.27800000000002,8.478000000000002 142.27800000000002,8.197700000000001 C142.27800000000002,7.897300000000001 142.413,7.6645 142.666,7.6645 H144.015 V6.172699999999999 zM143.20999999999998,4.6808 C142.92000000000002,4.6808 142.774,4.448 142.774,4.1576 C142.774,3.8673 142.92000000000002,3.6244999999999994 143.20999999999998,3.6244999999999994 H146.56799999999998 C147.33499999999998,3.6244999999999994 147.461,3.7596000000000007 147.461,4.458 V4.9236 C147.461,5.4468 147.40300000000002,6.1926999999999985 147.248,6.6282 C147.16000000000003,6.870999999999999 146.947,6.966200000000001 146.68599999999998,6.966200000000001 C146.327,6.966200000000001 146.084,6.790900000000001 146.084,6.500599999999999 C146.084,6.443000000000001 146.10399999999998,6.365400000000001 146.11399999999998,6.3078 C146.18200000000002,5.9498999999999995 146.22199999999998,5.5319 146.22199999999998,5.1639 V4.903600000000001 C146.22199999999998,4.728400000000001 146.18400000000003,4.6808 145.98899999999998,4.6808 H143.21300000000002 H143.20999999999998 zM143.61900000000003,9.8047 C143.61900000000003,9.5043 143.93,9.3291 144.25900000000001,9.3291 C144.60700000000003,9.3291 144.90800000000002,9.5043 144.90800000000002,9.8047 V10.861 C144.90800000000002,11.046299999999999 144.938,11.073799999999999 145.12099999999998,11.073799999999999 H149.507 C149.808,11.073799999999999 149.95299999999997,11.296600000000002 149.95299999999997,11.596900000000002 C149.95299999999997,11.877300000000002 149.808,12.1201 149.507,12.1201 H144.70499999999998 C143.978,12.1201 143.61900000000003,12.004999999999999 143.61900000000003,11.239 V9.8047 zM148.404,3.5368999999999993 C148.404,3.2364999999999995 148.664,3.071300000000001 149.015,3.071300000000001 C149.36700000000002,3.071300000000001 149.61700000000002,3.2364999999999995 149.61700000000002,3.5368999999999993 V5.899800000000001 H150.58800000000002 C150.889,5.899800000000001 150.99400000000003,6.1126000000000005 150.99400000000003,6.413 C150.99400000000003,6.7133 150.88600000000002,6.9361 150.58800000000002,6.9361 H149.61700000000002 V9.4342 C149.61700000000002,9.792200000000001 149.36399999999998,9.947400000000002 149.015,9.947400000000002 C148.66699999999997,9.947400000000002 148.404,9.792200000000001 148.404,9.4342 V3.5368999999999993 V3.5368999999999993 z" fill="#214DD4" id="svg_17" class=""/><path d="M152.098,10.220300000000002 C152.56400000000002,10.220300000000002 152.85500000000002,10.550699999999999 152.85500000000002,10.926200000000001 V11.1189 C152.85500000000002,11.6721 152.61200000000002,12.388000000000002 151.837,12.745899999999999 C151.49900000000002,12.891100000000002 151.313,12.415500000000002 151.594,12.3004 C151.79700000000003,12.165199999999999 151.993,11.9424 152.05,11.6421 C151.66199999999998,11.6421 151.361,11.331700000000001 151.361,10.9437 C151.361,10.555700000000002 151.692,10.2178 152.098,10.2178 V10.220300000000002 z" fill="#214DD4" id="svg_18" class=""/><path d="M157.813,5.784700000000001 H159.791 V4.032500000000001 C159.791,3.7421000000000006 160.09199999999998,3.5869 160.39299999999997,3.5869 C160.75099999999998,3.5869 161.03199999999998,3.7421000000000006 161.03199999999998,4.032500000000001 V8.6232 C161.03199999999998,9.3216 160.79899999999998,9.659500000000001 160.082,9.659500000000001 H157.519 C156.82999999999998,9.659500000000001 156.56900000000002,9.3792 156.56900000000002,8.7484 V4.029999999999999 C156.56900000000002,3.7395999999999994 156.87,3.5944000000000003 157.18099999999998,3.5944000000000003 C157.529,3.5944000000000003 157.813,3.7395999999999994 157.813,4.029999999999999 V5.7822 V5.784700000000001 zM157.813,8.428 C157.813,8.640799999999999 157.84300000000002,8.660800000000002 158.036,8.660800000000002 H159.56 C159.774,8.660800000000002 159.79399999999998,8.630700000000001 159.79399999999998,8.408000000000001 V6.7608999999999995 H157.815 V8.428 H157.813 zM162.24599999999998,3.5168 C162.24599999999998,3.2264999999999997 162.527,3.071300000000001 162.83800000000002,3.071300000000001 C163.20600000000002,3.071300000000001 163.47000000000003,3.2264999999999997 163.47000000000003,3.5168 V6.200199999999999 H164.51799999999997 C164.81900000000002,6.200199999999999 164.92399999999998,6.433 164.92399999999998,6.723400000000002 C164.92399999999998,7.0337 164.81599999999997,7.256499999999999 164.51799999999997,7.256499999999999 H163.47000000000003 V11.576899999999998 C163.47000000000003,11.924900000000001 163.209,12.079999999999998 162.848,12.079999999999998 C162.50900000000001,12.079999999999998 162.24599999999998,11.924900000000001 162.24599999999998,11.576899999999998 V3.5168 z" fill="#214DD4" id="svg_19" class=""/><path d="M168,9.862300000000001 C166.401,9.862300000000001 165.586,8.700800000000001 165.586,6.743400000000001 C165.586,4.7859 166.401,3.6045 168,3.6045 C169.60000000000002,3.6045 170.418,4.7759 170.418,6.743400000000001 C170.418,8.710799999999999 169.603,9.862300000000001 168,9.862300000000001 zM168,4.6508 C167.243,4.6508 166.817,5.2715 166.817,6.743400000000001 C166.817,8.2152 167.243,8.815999999999999 168,8.815999999999999 C168.75799999999998,8.815999999999999 169.19400000000002,8.205200000000001 169.19400000000002,6.743400000000001 C169.19400000000002,5.281599999999999 168.76799999999997,4.6508 168,4.6508 zM171.639,3.5368999999999993 C171.639,3.2364999999999995 171.89999999999998,3.071300000000001 172.26100000000002,3.071300000000001 C172.599,3.071300000000001 172.873,3.2364999999999995 172.873,3.5368999999999993 V11.576899999999998 C172.873,11.924900000000001 172.61200000000002,12.079999999999998 172.26100000000002,12.079999999999998 C171.91000000000003,12.079999999999998 171.639,11.924900000000001 171.639,11.576899999999998 V3.5368999999999993 V3.5368999999999993 z" fill="#214DD4" id="svg_20" class=""/><path d="M174.52999999999997,9.822700000000001 H177.71300000000002 V8.1857 C175.92700000000002,8.0105 175.142,7.101800000000001 175.142,5.850300000000001 C175.142,4.465999999999999 176.123,3.4872999999999994 178.35500000000002,3.4872999999999994 C180.586,3.4872999999999994 181.567,4.465999999999999 181.567,5.850300000000001 C181.567,7.0992999999999995 180.78199999999998,8.0105 178.99599999999998,8.1857 V9.822700000000001 H182.16899999999998 C182.42899999999997,9.822700000000001 182.567,10.055499999999999 182.567,10.3459 C182.567,10.636199999999999 182.43200000000002,10.879000000000001 182.16899999999998,10.879000000000001 H174.53300000000002 C174.27999999999997,10.879000000000001 174.13400000000001,10.6463 174.13400000000001,10.3459 C174.13400000000001,10.0455 174.27999999999997,9.822700000000001 174.53300000000002,9.822700000000001 H174.52999999999997 zM178.35500000000002,4.553599999999999 C177.015,4.553599999999999 176.414,5.0768 176.414,5.8528 C176.414,6.6286999999999985 177.015,7.151900000000001 178.35500000000002,7.151900000000001 C179.69400000000002,7.151900000000001 180.29500000000002,6.6286999999999985 180.29500000000002,5.8528 C180.29500000000002,5.0768 179.704,4.553599999999999 178.35500000000002,4.553599999999999 z" fill="#214DD4" id="svg_21" class=""/><path d="M183.46499999999997,10.7441 C183.204,10.7441 183.06599999999997,10.5213 183.06599999999997,10.2209 C183.06599999999997,9.9205 183.202,9.6978 183.46499999999997,9.6978 H191.09300000000002 C191.36399999999998,9.6978 191.49900000000002,9.930599999999998 191.49900000000002,10.2209 C191.49900000000002,10.511299999999999 191.36399999999998,10.7441 191.09300000000002,10.7441 H183.46499999999997 zM184.483,4.9719 C184.192,4.9719 184.04700000000003,4.728999999999999 184.04700000000003,4.438700000000001 C184.04700000000003,4.1183 184.192,3.8955 184.483,3.8955 H189.51799999999997 C190.188,3.8955 190.421,4.1183 190.421,4.756600000000001 V5.9079999999999995 C190.421,6.761600000000001 190.28500000000003,7.902999999999999 190.082,8.5138 C189.97699999999998,8.8342 189.69400000000002,8.921800000000001 189.50099999999998,8.921800000000001 C189.122,8.921800000000001 188.851,8.7466 188.851,8.4362 C188.851,8.3886 188.861,8.300999999999998 188.88099999999997,8.223400000000002 C189.027,7.642700000000001 189.135,6.8466999999999985 189.135,6.120799999999999 V5.1921 C189.135,5.009399999999999 189.10399999999998,4.9694 188.921,4.9694 H184.488 L184.483,4.9719 z" fill="#214DD4" id="svg_22" class=""/><path d="M192.733,3.5946999999999996 H195.02300000000002 C195.65499999999997,3.5946999999999996 195.858,3.817500000000001 195.858,4.388199999999999 V5.5321 C195.858,6.0853 195.66500000000002,6.3657 195.07999999999998,6.3657 H193.731 C193.546,6.3657 193.50799999999998,6.403199999999998 193.50799999999998,6.5684000000000005 V7.004000000000001 C193.50799999999998,7.236699999999999 193.52800000000002,7.256799999999998 193.76100000000002,7.264299999999999 C194.46800000000002,7.2943 195.37099999999998,7.2166999999999994 195.83800000000002,7.0991 C196.06099999999998,7.041499999999999 196.30399999999997,7.166699999999999 196.35199999999998,7.457000000000001 C196.409,7.7774 196.29399999999998,8.017700000000001 196.08100000000002,8.0778 C195.45100000000002,8.253 194.27499999999998,8.348099999999999 193.18,8.290600000000001 C192.52999999999997,8.2605 192.30700000000002,8.067799999999998 192.30700000000002,7.3794 V6.207999999999998 C192.30700000000002,5.6472999999999995 192.5,5.432 193.10199999999998,5.432 H194.43099999999998 C194.62400000000002,5.432 194.654,5.394400000000001 194.654,5.2292000000000005 V4.793699999999999 C194.654,4.6385000000000005 194.62400000000002,4.611000000000001 194.421,4.611000000000001 H192.733 C192.452,4.611000000000001 192.29700000000003,4.3682 192.29700000000003,4.117800000000001 C192.29700000000003,3.8475 192.452,3.5946999999999996 192.733,3.5946999999999996 V3.5946999999999996 zM193.76100000000002,9.8125 C193.76100000000002,9.124099999999999 193.995,8.8838 194.692,8.8838 H198.952 C199.709,8.8838 200,9.059000000000001 200,9.8125 V11.341899999999999 C200,12.040199999999999 199.767,12.263000000000002 199.07,12.263000000000002 H194.80900000000003 C194.04199999999997,12.263000000000002 193.76100000000002,12.087800000000001 193.76100000000002,11.334399999999999 V9.8125 zM195.26600000000002,9.879999999999999 C195.053,9.879999999999999 195.01299999999998,9.927600000000002 195.01299999999998,10.1128 V11.033999999999999 C195.01299999999998,11.2192 195.06,11.2668 195.26600000000002,11.2668 H198.50599999999997 C198.719,11.2668 198.75900000000001,11.2192 198.75900000000001,11.033999999999999 V10.1128 C198.75900000000001,9.927600000000002 198.711,9.879999999999999 198.50599999999997,9.879999999999999 H195.26600000000002 zM198.80700000000002,3.5070999999999994 C198.80700000000002,3.236700000000001 199.06,3.0615000000000006 199.38799999999998,3.0615000000000006 C199.73700000000002,3.0615000000000006 200,3.236700000000001 200,3.5070999999999994 V8.0503 C200,8.388200000000001 199.747,8.535900000000002 199.38799999999998,8.535900000000002 C199.02999999999997,8.535900000000002 198.80700000000002,8.380700000000001 198.80700000000002,8.0503 V6.433199999999999 H197.95100000000002 V8.0027 C197.95100000000002,8.340599999999998 197.69799999999998,8.488299999999999 197.36,8.488299999999999 C196.981,8.488299999999999 196.75799999999998,8.333100000000002 196.75799999999998,8.0027 V3.6822999999999997 C196.75799999999998,3.4018999999999995 197.01100000000002,3.2468000000000004 197.36,3.2468000000000004 C197.70800000000003,3.2468000000000004 197.95100000000002,3.4018999999999995 197.95100000000002,3.6822999999999997 V5.3568999999999996 H198.80700000000002 V3.5070999999999994 V3.5070999999999994 z" fill="#214DD4" id="svg_23" class=""/></g></svg>