<svg xmlns="http://www.w3.org/2000/svg" width="260" height="84" viewBox="0 0 260 84"><defs><style>.a{fill:#fff;opacity:0;}.b{fill:#214dd4;}</style></defs><rect class="a" width="260" height="84"/><g transform="translate(-10 8)"><path class="b" d="M62.048,65.536h2.863a.706.706,0,0,0,.707-.7V46.883a.705.705,0,0,0-.707-.7H62.048a.705.705,0,0,0-.707.7V64.832a.706.706,0,0,0,.707.7" transform="translate(22.359 -13.858)"/><path class="b" d="M62.952,33.237a2.8,2.8,0,1,0,2.811,2.8,2.808,2.808,0,0,0-2.811-2.8" transform="translate(22.887 -8.133)"/><path class="b" d="M190.752,45.461a10.079,10.079,0,1,0,5.844,18.3v.011l.671.95a1.179,1.179,0,0,0,.963.5h1.676a.965.965,0,0,0,.967-.964V55.539a10.1,10.1,0,0,0-10.121-10.078m0,15.9a5.819,5.819,0,1,1,5.844-5.819,5.831,5.831,0,0,1-5.844,5.819" transform="translate(-30.128 -13.54)"/><path class="b" d="M85.273,45.461A10.079,10.079,0,1,0,95.394,55.539,10.111,10.111,0,0,0,85.273,45.461m0,15.9a5.819,5.819,0,1,1,5.845-5.82,5.84,5.84,0,0,1-5.845,5.82" transform="translate(16.282 -13.54)"/><path class="b" d="M35.716,36.848A1.373,1.373,0,0,1,35.5,34.96a8.929,8.929,0,0,0,1.775-5.374,9.129,9.129,0,0,0-18.257,0V44.5a10.122,10.122,0,0,0,20.243,0,10,10,0,0,0-3.546-7.647M28.149,24.514a5.072,5.072,0,1,1-5.1,5.072,5.089,5.089,0,0,1,5.1-5.072m.992,26.092a6.11,6.11,0,1,1,6.136-6.11,6.13,6.13,0,0,1-6.136,6.11" transform="translate(40.98 -2.496)"/><path class="b" d="M127.014,45.462a10.111,10.111,0,0,0-10.121,10.079,10,10,0,0,0,3.547,7.647,1.374,1.374,0,0,1,.214,1.889,8.933,8.933,0,0,0-1.775,5.374,9.129,9.129,0,0,0,18.257,0V55.541a10.111,10.111,0,0,0-10.122-10.079m.993,30.06a5.072,5.072,0,1,1,5.1-5.072,5.088,5.088,0,0,1-5.1,5.072m-.993-13.872a6.11,6.11,0,1,1,6.137-6.109,6.13,6.13,0,0,1-6.137,6.109" transform="translate(-2.084 -13.541)"/><path class="b" d="M169.337,46.252a.743.743,0,0,0-.8-.736,10.108,10.108,0,0,0-9.316,10.047v8.975a.706.706,0,0,0,.706.7h2.864a.706.706,0,0,0,.706-.7V55.563a5.836,5.836,0,0,1,5.153-5.778.78.78,0,0,0,.692-.772Z" transform="translate(-20.706 -13.563)"/><path class="b" d="M241.706,45.475a7.51,7.51,0,0,0-5.857,2.253,7.507,7.507,0,0,0-5.856-2.253,7.641,7.641,0,0,0-7.044,7.683V64.514a.707.707,0,0,0,.708.7h2.862a.707.707,0,0,0,.709-.7V52.947a3.241,3.241,0,0,1,6.483,0c0,2.359,0,9.325,0,11.567a.706.706,0,0,0,.708.7h2.862a.707.707,0,0,0,.708-.7c0-2.242,0-9.209,0-11.567a3.241,3.241,0,0,1,6.481,0c0,2.359,0,9.325,0,11.567a.706.706,0,0,0,.707.7h2.863a.706.706,0,0,0,.707-.7V53.159a7.639,7.639,0,0,0-7.043-7.683" transform="translate(-48.748 -13.54)"/></g></svg>