<svg xmlns="http://www.w3.org/2000/svg" width="24" height="24" viewBox="0 0 24 24"><defs><style>.a{fill:#214dd4;opacity:0;}.b{opacity:0.95;}</style></defs><rect class="a" width="24" height="24"/><g transform="translate(-683.345 123.699)"><path d="M695.5-109.7a1.446,1.446,0,0,1-1.5-1.385v-9.231a1.446,1.446,0,0,1,1.5-1.385,1.446,1.446,0,0,1,1.5,1.385v9.231A1.446,1.446,0,0,1,695.5-109.7Z" transform="translate(0 -1)"/><path class="b" d="M695.351-99.7a9.974,9.974,0,0,1-7.615-3.51,10.046,10.046,0,0,1,1.113-14.129,1.5,1.5,0,0,1,2.115.167,1.505,1.505,0,0,1-.167,2.119,6.975,6.975,0,0,0-2.434,4.784,6.977,6.977,0,0,0,1.654,5.106,7,7,0,0,0,9.872.782,7.01,7.01,0,0,0,2.455-5.343,6.949,6.949,0,0,0-2.464-5.324,1.505,1.505,0,0,1-.179-2.118,1.5,1.5,0,0,1,2.115-.179,9.952,9.952,0,0,1,3.529,7.62,10.008,10.008,0,0,1-3.509,7.63A9.945,9.945,0,0,1,695.351-99.7Z" transform="translate(0 -2)"/></g></svg>